# xmcd
#
# Track frame offsets: 
#        150
#        17977
#        34160
#        54640
#        72060
#        99937
#        126515
#        153560
#        175652
#        202130
#
# Disc length: 2894 seconds
#
# Revision: 0
# Processed by: cddbd v1.4PL0 Copyright (c) Steve Scherf et al.
# Submitted via: ExactAudioCopy v0.90b3
#
DISCID=8a0b4c0a
DTITLE=Big Mike Griffin - Harley in the Rain
DYEAR=1997
DGENRE=Blues
TTITLE0=Harley in the Rain
TTITLE1=Self Defense
TTITLE2=Old Maid
TTITLE3=Harley Blues
TTITLE4=You'll Know
TTITLE5=Ain't Superstitious
TTITLE6=Get Outta My Life
TTITLE7=Shovel Head
TTITLE8=Willin'
TTITLE9=Figure of Speech
EXTD=
EXTT0=
EXTT1=
EXTT2=
EXTT3=
EXTT4=
EXTT5=
EXTT6=
EXTT7=
EXTT8=
EXTT9=
PLAYORDER=
